<?xml version="1.0" encoding="UTF-8"?>
<svg width="30px" height="30px" viewBox="0 0 30 30" version="1.1" xmlns="http://www.w3.org/2000/svg" xmlns:xlink="http://www.w3.org/1999/xlink">
    <!-- Generator: Sketch 58 (84663) - https://sketch.com -->
    <title>map icon</title>
    <desc>Created with Sketch.</desc>
    <g id="Components" stroke="none" stroke-width="1" fill="none" fill-rule="evenodd">
        <g id="Desktop/Navigation/Navigation-Bar/Australia/Search" transform="translate(-1405.000000, -21.000000)" stroke="#004165" stroke-width="1.5">
            <g id="Group-2">
                <g id="Navigation">
                    <path d="M1428.87721,46.3722858 C1428.7535,46.6881366 1428.58474,47.0757265 1428.27726,47.0272363 C1427.80754,46.9515118 1427.31825,46.1912777 1427.01762,46.7881063 C1426.79761,47.2241864 1426.96637,48.3882845 1427.54543,49.0492132 C1428.12384,49.7101419 1428.62424,49.194684 1428.87068,48.9127098 C1429.1168,48.6307357 1429.40927,47.531402 1429.29045,47.1743676 C1429.17131,46.8179975 1429.31461,46.7628648 1429.31789,46.4307398 C1429.32081,46.0986148 1429.02181,46.0049555 1428.87721,46.3722858 M1433.15554,34.1713421 C1432.65188,33.4679013 1432.9796,33.3317301 1432.68876,32.9135847 C1432.3976,32.4947751 1431.98012,32.2523239 1431.73139,31.5980376 C1431.48233,30.9430871 1431.388,30.6644343 1430.64965,30.2951113 C1429.91097,29.9261204 1429.85711,29.5172745 1429.74547,28.5092752 C1429.63286,27.5012758 1429.15434,25.7758865 1428.96077,25.7659228 C1428.76721,25.7552948 1428.52207,26.2325584 1428.22895,25.9346423 C1427.93583,25.6367261 1428.40978,25.3607303 1428.25016,24.9492274 C1428.09022,24.5370603 1427.7749,23.8658357 1427.70864,23.3543632 C1427.64173,22.8428907 1427.32869,22.4652646 1427.14459,22.6997448 C1426.96115,22.933893 1426.51233,24.7207254 1426.45161,25.2288766 C1426.39155,25.7376921 1426.20615,27.2355758 1426.09288,27.5404666 C1425.97929,27.8453573 1425.53308,28.8380789 1424.59529,27.8513356 C1423.65815,26.8652565 1422.31984,26.606199 1421.98005,26.1286033 C1421.64057,25.6510075 1422.41124,25.609824 1422.61525,25.6307479 C1422.81926,25.6516718 1423.05428,25.174076 1422.85027,24.9980498 C1422.64626,24.8213593 1422.81991,24.5237753 1423.06113,24.039537 C1423.30236,23.5552988 1422.92665,23.4294234 1422.76801,23.5121226 C1422.45759,23.6741996 1422.00322,23.4204561 1421.73817,23.6170741 C1421.61577,23.7080763 1421.1924,23.8977197 1420.85456,23.5662589 C1420.71094,23.4251058 1420.04505,22.8332591 1419.70493,23.1995929 C1419.44608,23.4775816 1419.37851,23.8449118 1418.81218,23.2065676 C1418.24585,22.5675591 1417.63774,23.4573219 1417.74186,23.5662589 C1417.84599,23.6745317 1418.16098,23.6649001 1418.02617,24.0265842 C1417.89136,24.3886004 1416.95781,24.9658337 1417.07402,25.6025173 C1417.19022,26.2392009 1416.54979,26.1697867 1416.26124,25.9323174 C1415.20398,25.0611535 1414.95852,25.0073493 1413.95218,25.7270641 C1412.94584,26.446779 1413.5373,26.845329 1413.4149,27.0944227 C1413.25006,27.4288726 1412.75684,26.834701 1412.86293,27.2873873 C1413.01145,27.9207497 1412.76435,28.5301991 1412.655,28.1841248 C1412.51203,27.732767 1412.31325,27.4268798 1412.02763,27.7174892 C1411.6676,28.0838231 1411.96627,28.7029041 1411.84092,28.9128071 C1411.71558,29.1227101 1411.61308,28.9935134 1411.41267,29.6776909 C1411.21225,30.3618684 1410.52481,30.3356305 1410.00255,30.5398874 C1409.48028,30.74348 1409.49106,30.6817048 1409.02559,31.0775978 C1408.56012,31.4738229 1408.4524,30.9915774 1408.12697,31.1652788 C1407.87628,31.2991251 1407.36935,31.8441422 1407.02433,32.3147634 C1406.67931,32.7853845 1406.48542,31.8165759 1406.16619,32.7804026 C1405.84695,33.7445614 1406.39729,35.0657547 1406.52394,35.4261103 C1406.65059,35.786798 1406.22461,35.2939245 1406.03268,35.5576318 C1405.90767,35.7303368 1406.14725,36.2285243 1406.64961,36.67955 C1407.19374,37.1691022 1407.47838,38.6779461 1408.05874,39.5228721 C1408.63911,40.3687944 1408.65478,41.2150489 1408.61789,41.3970534 C1408.55947,41.6843415 1408.02904,41.6703923 1408.31824,42.086877 C1408.66294,42.5830717 1409.47278,42.6996476 1409.93074,42.6797201 C1410.2738,42.6641102 1410.74743,42.5335851 1410.87767,42.2509467 C1411.00758,41.9676441 1411.1277,42.145331 1411.27786,42.1337066 C1411.54845,42.1131149 1411.3575,41.8919196 1411.41005,41.7607303 C1411.46293,41.6305373 1411.58403,41.5770651 1411.82395,41.6355191 C1412.03808,41.6876628 1412.02274,41.4903805 1412.19117,41.4525183 C1412.35927,41.4149881 1412.37494,41.4800846 1412.63999,41.4525183 C1413.33166,41.3821078 1413.52751,41.5216003 1413.85654,41.3638409 C1414.18557,41.2064136 1414.21462,40.8839203 1414.31222,40.6580753 C1414.82991,39.4624253 1417.52969,39.2482047 1418.63461,39.2810851 C1419.50843,39.3076551 1420.38355,39.6218453 1420.57581,40.4378764 C1420.82062,41.4760991 1421.71826,42.2509467 1422.01497,41.7985925 C1422.31103,41.3465704 1423.0941,40.7474169 1423.09214,41.268521 C1423.09051,41.7889609 1423.04481,42.1576196 1423.48515,42.5010369 C1423.92614,42.844122 1424.1667,42.6524859 1424.1259,43.4725025 C1424.0851,44.2921869 1424.74838,44.3234067 1425.32842,44.8219263 C1425.90813,45.3204459 1426.68663,44.8943296 1427.16614,44.9773608 C1427.64564,45.0603921 1427.68644,45.6831264 1428.15257,45.6522388 C1428.62032,45.6216833 1428.70617,44.9561048 1429.689,44.9042933 C1430.67315,44.8534782 1430.86867,43.8979546 1431.06028,43.1174608 C1431.25286,42.3376314 1432.16389,41.4584965 1433.18916,40.1459385 C1434.21411,38.8333806 1433.90825,37.0279491 1433.98986,36.0096539 C1434.07048,34.9910265 1433.6592,34.8751149 1433.15554,34.1713421" id="map-icon"></path>
                </g>
            </g>
        </g>
    </g>
</svg>