<svg width="26" height="22" viewBox="0 0 26 22" fill="none" xmlns="http://www.w3.org/2000/svg">
<path fill-rule="evenodd" clip-rule="evenodd" d="M13.0004 3.2365C11.8819 2.07714 10.3457 1.33742 8.7731 1.09137C6.78232 0.779903 4.61215 1.24449 3.07992 2.79754C1.33176 4.56946 0.779761 6.72231 1.07571 8.79781C1.36797 10.8474 2.47943 12.8004 4.02035 14.2918C5.35641 15.5848 7.151 17.2898 8.76999 18.6749C9.57752 19.3658 10.3591 19.9925 11.0284 20.4514C11.3621 20.6801 11.6872 20.8806 11.9868 21.0274C12.2581 21.1603 12.6221 21.3077 12.9996 21.3077C13.3726 21.3077 13.7349 21.1656 14.0089 21.0346C14.3104 20.8906 14.6378 20.6935 14.9745 20.4677C15.6499 20.0149 16.4383 19.3954 17.2529 18.7083C18.8861 17.3307 20.6929 15.6234 22.0364 14.2818C23.5406 12.7798 24.6373 10.8247 24.9255 8.77906C25.2174 6.70694 24.6723 4.55908 22.9228 2.79572C21.3881 1.24881 19.22 0.78205 17.2294 1.09169C15.6561 1.33641 14.1199 2.0753 13.0004 3.2365ZM8.48026 2.87579C6.95435 2.63705 5.43907 3.01119 4.41289 4.05131C3.09055 5.39162 2.68474 6.97676 2.90888 8.5486C3.1367 10.1463 4.02321 11.75 5.32331 13.0083C6.65512 14.2972 8.41602 15.9693 9.98975 17.3157C10.7786 17.9906 11.5026 18.5683 12.092 18.9724C12.3877 19.1751 12.6302 19.3207 12.8169 19.4122C12.9092 19.4574 12.9694 19.4801 13.0023 19.4912C13.0361 19.4802 13.0988 19.4575 13.1953 19.4114C13.3842 19.3211 13.6291 19.1776 13.9269 18.9779C14.5205 18.5799 15.2499 18.0096 16.0429 17.3407C17.625 16.0062 19.3929 14.3365 20.7131 13.0183C21.9879 11.7454 22.8664 10.1333 23.0919 8.53277C23.3137 6.95864 22.911 5.38112 21.5935 4.05313C20.5627 3.01419 19.0456 2.63915 17.5206 2.87636C15.9899 3.11447 14.5697 3.95475 13.7869 5.18606C13.6181 5.45161 13.3207 5.61312 13.0006 5.61312C12.6805 5.61312 12.3832 5.45161 12.2144 5.18606C11.4336 3.9578 10.0122 3.11547 8.48026 2.87579Z" fill="#004F76" />
</svg>
