<svg xmlns="http://www.w3.org/2000/svg" id="e66b07b7-47ce-4149-8e6a-5b9b2a1089ed" data-name="Layer 1" width="1260.267" height="467" viewBox="0 0 1260.267 467">
  <title>AUS_header</title>
  <path d="M45.864,201.6a2.862,2.862,0,0,0-2.2-1.4h-1.3a3.368,3.368,0,0,0-2.2,1.4L.264,289.1a2.312,2.312,0,0,0,2.2,3.4h8.2a3.229,3.229,0,0,0,3-1.9c2.6-6,5.3-11.8,7.9-17.8h42.5l8.1,17.8a2.916,2.916,0,0,0,3,1.9h8.2a2.312,2.312,0,0,0,2.2-3.4Zm-19.2,60,15.9-35.6h.6l16,35.6Z" fill="#4c839d" />
  <path d="M174.664,201.5h-8.7a2.54,2.54,0,0,0-2.5,2.5v54c0,12.9-8.5,22.9-21.9,22.9-13.3,0-21.6-10.2-21.6-23.2V204a2.54,2.54,0,0,0-2.5-2.5h-8.7a2.611,2.611,0,0,0-2.5,2.5v54.6c0,19.8,14.8,35.2,35.2,35.2,20.5,0,35.5-15.5,35.5-35.2V204A2.372,2.372,0,0,0,174.664,201.5Z" fill="#4c839d" />
  <path d="M233.864,240.1c-10.8-4.4-16.5-9-16.5-16.4,0-4.8,3.8-11.7,14.7-11.7,7.6,0,16.7,6,17.6,6.5,1.8,1.2,3.5.4,4.5-1.3,1-1.6,2.2-3.4,3.3-4.9a3,3,0,0,0-.8-4.4,44.294,44.294,0,0,0-24.1-7.7c-20.7,0-28.5,13.9-28.5,24.1,0,15.1,10.4,22,23.7,27.6,12.9,5.3,19.6,10.3,19.6,18.1,0,6.6-5.7,12.1-14.7,12.1-10,0-20-8.3-20.8-9-1.4-1.2-3.2-.7-4.4,1s-2.2,3.6-3.4,5.3c-1.3,2.2-.4,3.1.8,4.2a42.464,42.464,0,0,0,28,10.3c16.9,0,29-11,29-24.6C261.764,253.4,248.964,246.2,233.864,240.1Z" fill="#4c839d" />
  <path d="M351.664,201.5h-65.4a2.54,2.54,0,0,0-2.5,2.5v7.3a2.474,2.474,0,0,0,2.5,2.5h25.9v76.3a2.611,2.611,0,0,0,2.5,2.5h8.6a2.611,2.611,0,0,0,2.5-2.5V213.8h25.9a2.54,2.54,0,0,0,2.5-2.5V204A2.474,2.474,0,0,0,351.664,201.5Z" fill="#4c839d" />
  <path d="M446.664,229.3c0-15.5-12.7-27.8-28.4-27.8h-35.3a2.54,2.54,0,0,0-2.5,2.5v86.1a2.474,2.474,0,0,0,2.5,2.5h8.5a2.611,2.611,0,0,0,2.5-2.5V256.9h19.6l17.3,34.5a2.463,2.463,0,0,0,2.1,1.2h10.1a2.481,2.481,0,0,0,2.2-3.8l-17.8-33C438.764,251.2,446.664,241.3,446.664,229.3Zm-29.4,16.4h-23.2V214.1h23.2c8.5,0,15.9,7,15.9,15.5A16.113,16.113,0,0,1,417.264,245.7Z" fill="#4c839d" />
  <path d="M514.364,201.6a3.029,3.029,0,0,0-2.2-1.4h-1.3a3.368,3.368,0,0,0-2.2,1.4l-39.9,87.5a2.312,2.312,0,0,0,2.2,3.4h8.2a3.228,3.228,0,0,0,3-1.9c2.6-6,5.3-11.8,7.9-17.8h42.5l8.1,17.8a2.916,2.916,0,0,0,3,1.9h8.2a2.312,2.312,0,0,0,2.2-3.4Zm-19.3,60,15.9-35.6h.7l16,35.6Z" fill="#4c839d" />
  <path d="M632.564,280.4h-38.8V204a2.611,2.611,0,0,0-2.5-2.5h-8.6a2.54,2.54,0,0,0-2.5,2.5v86.1a2.474,2.474,0,0,0,2.5,2.5h49.8a2.54,2.54,0,0,0,2.5-2.5V283A2.48,2.48,0,0,0,632.564,280.4Z" fill="#4c839d" />
  <path d="M672.064,201.5h-8.6a2.611,2.611,0,0,0-2.5,2.5v86.1a2.611,2.611,0,0,0,2.5,2.5h8.6a2.611,2.611,0,0,0,2.5-2.5V204A2.688,2.688,0,0,0,672.064,201.5Z" fill="#4c839d" />
  <path d="M786.064,289.1l-39.7-87.5a3.029,3.029,0,0,0-2.2-1.4h-1.3a3.368,3.368,0,0,0-2.2,1.4l-39.9,87.5a2.312,2.312,0,0,0,2.2,3.4h8.2a3.229,3.229,0,0,0,3-1.9c2.6-6,5.3-11.8,7.9-17.8h42.5l8.1,17.8a2.916,2.916,0,0,0,3,1.9h8.2A2.312,2.312,0,0,0,786.064,289.1Zm-58.9-27.5,15.9-35.6h.7l16,35.6Z" fill="#4c839d" />
  <path d="M1253.164,65.8c-6.2-2.3-28.3-4.8-37.6-5.8-4.3-3.5-15.8-12.3-22.4-12.3a7.924,7.924,0,0,0-4,1,7.1,7.1,0,0,0-3.5,4.6c-.7,2.8.1,5.8,2.3,10.2a34.814,34.814,0,0,0-9.9-2,8.03,8.03,0,0,0-6.7,3,6.993,6.993,0,0,0-1.4,5.9c2,9.6,19.2,22.8,19.2,22.8a2.09,2.09,0,0,1-.4.6c-15.8,27.2-41.7,31.2-55.8,31.2h-5.1a222.571,222.571,0,0,0-29.8,2.1l1.3-3.6a92.143,92.143,0,1,0-118.9,55l1.9.7a130.795,130.795,0,0,1-36.6,5.2,141.25,141.25,0,0,1-37.2-5.1c-17.6-4.8-62.5-23.3-101.7-90.4-5-8.6-9-9.4-11.9-9.4a8.111,8.111,0,0,0-6.7,3.4c-2.3,3.1-2.5,7.5-.7,13,1.6,5,16.6,50,51.5,83,36.9,34.9,83,54.5,141.1,60.1h.2a270.843,270.843,0,0,1,35.5,4.5l-1.5,2.1c-4.5,6.1-21.9,16.8-38.8,27.1-16.7,10.2-52,27.5-52.3,27.7-1.8.9-44.3,21.5-59.1,34.4-22.7,19.9-25.7,40.4-21.4,51.9,2.1,5.5,5.9,8.8,10.3,8.8,5.1,0,8.6-3.8,14.9-10.6a195.456,195.456,0,0,1,27-25c35.4-26.9,76.5-49.5,122-67,9.4-3.6,30.5-9.8,36.7-11.7l2.8-.8c-1.5,8-6.7,15-15.3,20.2-7,4-36.7,22.4-49.4,30.3-2.8,1.8-16.7,9.9-22,13-27.7,15.9-53.9,31-85.1,62.2-18.3,18.3-20.1,43-15.6,53.9,2.6,6.4,7.2,7,9,7,6.1,0,11.2-5.5,22.3-17.4,6.2-6.7,14-15,23.6-24,35.4-33.4,84.3-61.8,123.5-84.7,18-10.5,33.5-19.5,44.7-27.2,19.1-13,44.3-35.5,56.8-69.2,14.2-14.3,27.1-31.6,39.1-52.5,1.1,7.2,1.8,14.9.8,19.4-1.1,5.2-.5,9.3,1.8,12.1a8.771,8.771,0,0,0,6.8,3.3h0c7.8,0,15.2-9.9,17-23,1.8-12.7,1.9-43.9,1.9-45.2.1-17.9,1.8-27.2,4.5-36.4,1.5-4.5,5.6-13.1,7.4-15.1a39.761,39.761,0,0,1,20.7-12l.6-.2c7.2-2.4,10.5-10.4,10.7-16.9C1260.364,72.1,1257.664,67.5,1253.164,65.8Z" fill="#fff" />
  <path d="M1045.464,260.3c-2.1-2-8.5-6.8-25.7-10.8-5.1,6.8-20,16.2-40.6,28.8-17.2,10.5-52.9,28-52.9,28s-43.4,21-57.6,33.4c-29.1,25.4-20.8,49.1-15.5,49.1,4.9,0,13.5-15.7,37.9-34.2,34.8-26.5,75.6-49.5,123.6-67.9,9.9-3.8,31.8-10.3,37.2-11.8a21.521,21.521,0,0,0-5.9-14.1Z" fill="#064265" />
  <path d="M1190.964,86.5c3.4-8.8,4.6-12.8-.9-15.2-4.6-2-12.5-4.2-13.6-2.9C1174.864,70.6,1188.464,84.9,1190.964,86.5Z" fill="#064265" />
  <path d="M1147.964,210.2a56.8,56.8,0,0,0-21.3-43,48.429,48.429,0,0,0-4.6-3.3,55.577,55.577,0,0,0-28.2-8.8c-30.8-1.1-57.4,23.4-58,54.6-.5,24.2,12.3,36.9,17.7,42.3l.5.5c11.9,12,15.9,38.2-9.7,53.8,32.5-18.5,75.6-38.7,98.6-65.4,0-.1,0-.1.1-.2C1143.964,238.3,1148.264,224.2,1147.964,210.2Z" fill="#a72860" />
  <path d="M1018.964,169.9c-19.3,12.2-59.1,30.1-112,15.8-63.9-17.4-103.4-89.7-106.3-94.5-4.8-8-9.5-6.1-6.7,2.7,2.8,8.9,17.8,50,49.8,80.2,31.5,29.8,74.8,52.3,137.1,58.3,52.7,3.6,68.1,15.1,72.7,19.5-5.4-5.4-18.2-18.1-17.7-42.3.6-31.2,27.2-55.7,58-54.6a55.884,55.884,0,0,1,28.2,8.8l-.2-.2C1102.064,150,1057.464,146.2,1018.964,169.9Z" fill="#de3930" />
  <path d="M1044.464,306.3c-8.3,4.8-52.7,32.4-54.4,33.4h0c-33.7,20-64,34.1-100.8,71.1-20.7,20.8-16.9,49.6-11.3,49.6,5.5,0,18.1-17.8,41.3-39.7,52.3-49.3,133.8-88.2,169-112.5,22.4-15.3,44.1-37.5,54.8-67.4C1120.064,267.7,1076.964,287.8,1044.464,306.3Z" fill="#40b8e4" />
  <path d="M1250.864,72c-4.8-1.8-24.1-4.2-38-5.7-5.4-4.8-17.9-13.4-20.5-11.9-2.7,1.5,8.6,17.6,10,20.9a62.7,62.7,0,0,1-7.9,21.8c-21.6,37.1-60,34.4-64.1,34.5,15,.3,56.8,1.4,86.3-22.9,2.3-2,4.6-4.1,6.8-6.3a46.974,46.974,0,0,1,23.9-13.8C1253.864,86.6,1255.664,73.8,1250.864,72Z" fill="#de3930" />
  <path d="M1191.064,172.3h0c1.2,6.7,6.4,29.5,4.1,40.5-2.8,13.3,10.1,7.9,12.6-10,1.7-12.4,1.9-44.4,1.9-44.4.1-19.7,2.2-29.6,4.9-38.6C1208.964,133.1,1201.464,152,1191.064,172.3Z" fill="#8fb73e" />
  <path d="M1016.964,155.4c14.2-9.8,35.7-24.6,66-32.1,3.4-.8,6.8-1.6,10.3-2.1a85.5,85.5,0,1,0-110.3,51,123.4,123.4,0,0,0,29-13.4C1013.364,157.9,1015.064,156.7,1016.964,155.4Z" fill="#fec214" />
  <path d="M1216.664,108.8c-29.5,24.3-71.4,23.2-86.3,22.9-5.8-.1-26.8.1-44.2,4.4-31.9,7.9-53.3,24.6-67.2,33.9,38.5-23.7,83.2-19.9,102.9-6.2.1,0,.1.1.2.2a48.429,48.429,0,0,1,4.6,3.3,56.163,56.163,0,0,1,21.3,43c.3,14.1-4,28.1-4.8,30.5v.1c20.6-20.6,36.1-45.4,47.9-68.5,10.4-20.3,17.9-39.2,23.5-52.4,3.7-8.8,6.6-15,8.9-17.5C1221.264,104.7,1218.964,106.8,1216.664,108.8Z" fill="#fec214" />
</svg>
